<svg width="25" height="25" viewBox="0 0 25 25" fill="none" xmlns="http://www.w3.org/2000/svg">
<path d="M13.7723 12.4301L9.73255 16.4698C9.54265 16.6597 9.4477 16.9014 9.4477 17.1949C9.4477 17.4884 9.54265 17.7301 9.73255 17.92C9.92245 18.1099 10.1641 18.2048 10.4576 18.2048C10.7511 18.2048 10.9928 18.1099 11.1827 17.92L15.9476 13.1551C16.0512 13.0516 16.1245 12.9393 16.1677 12.8185C16.2108 12.6976 16.2324 12.5682 16.2324 12.4301C16.2324 12.2919 16.2108 12.1625 16.1677 12.0416C16.1245 11.9208 16.0512 11.8086 15.9476 11.705L11.1827 6.94013C10.9928 6.75023 10.7511 6.65527 10.4576 6.65527C10.1641 6.65527 9.92245 6.75023 9.73255 6.94013C9.54265 7.13003 9.4477 7.37173 9.4477 7.66521C9.4477 7.9587 9.54265 8.2004 9.73255 8.3903L13.7723 12.4301Z" fill="#999999"/>
</svg>
