<svg xmlns="http://www.w3.org/2000/svg" width="16" height="16" viewBox="0 0 16 16" fill="none">
  <path d="M4.66667 13.3337C4.11111 13.3337 3.63889 13.1392 3.25 12.7503C2.86111 12.3614 2.66667 11.8892 2.66667 11.3337H1.81667C1.62778 11.3337 1.46934 11.2697 1.34134 11.1417C1.21334 11.0137 1.14956 10.8554 1.15 10.667C1.15045 10.4785 1.21445 10.3203 1.342 10.1923C1.46956 10.0643 1.62778 10.0003 1.81667 10.0003H3.18334C3.37222 9.78921 3.59445 9.62544 3.85 9.50899C4.10556 9.39255 4.37778 9.3341 4.66667 9.33366C4.95556 9.33321 5.22778 9.39166 5.48334 9.50899C5.73889 9.62633 5.96111 9.7901 6.15 10.0003H8.93334L10.3333 4.00033H3.83334C3.64445 4.00033 3.48622 3.93633 3.35867 3.80833C3.23111 3.68033 3.16711 3.5221 3.16667 3.33366C3.16622 3.14521 3.23022 2.98699 3.35867 2.85899C3.48711 2.73099 3.64534 2.66699 3.83334 2.66699H11.1667C11.3889 2.66699 11.5667 2.75033 11.7 2.91699C11.8333 3.08366 11.8722 3.27255 11.8167 3.48366L11.3833 5.33366H12.6667C12.8778 5.33366 13.0778 5.38099 13.2667 5.47566C13.4556 5.57033 13.6111 5.70077 13.7333 5.86699L14.9833 7.51699C15.1056 7.67255 15.1833 7.8421 15.2167 8.02566C15.25 8.20921 15.25 8.39521 15.2167 8.58366L14.7667 10.8003C14.7333 10.9559 14.6556 11.0837 14.5333 11.1837C14.4111 11.2837 14.2722 11.3337 14.1167 11.3337H13.3333C13.3333 11.8892 13.1389 12.3614 12.75 12.7503C12.3611 13.1392 11.8889 13.3337 11.3333 13.3337C10.7778 13.3337 10.3056 13.1392 9.91667 12.7503C9.52778 12.3614 9.33333 11.8892 9.33333 11.3337H6.66667C6.66667 11.8892 6.47222 12.3614 6.08334 12.7503C5.69445 13.1392 5.22222 13.3337 4.66667 13.3337ZM10.6167 8.66699H13.8333L13.9 8.31699L12.6667 6.66699H11.0833L10.6167 8.66699ZM8.96667 9.88366L9.07534 9.40033C9.14734 9.0781 9.23889 8.68366 9.35 8.21699C9.38334 8.07255 9.41667 7.93921 9.45 7.81699C9.48334 7.69477 9.51111 7.57255 9.53334 7.45033L9.642 6.96699C9.714 6.64477 9.80556 6.25033 9.91667 5.78366C10.0278 5.31699 10.1196 4.92255 10.192 4.60033L10.3 4.11699L10.3333 4.00033L8.93334 10.0003L8.96667 9.88366ZM1.16667 8.88366C0.97778 8.88366 0.819558 8.81988 0.692002 8.69233C0.564447 8.56477 0.500447 8.40633 0.500002 8.21699C0.499558 8.02766 0.563558 7.86944 0.692002 7.74233C0.820447 7.61521 0.978669 7.55121 1.16667 7.55033H3.5C3.68889 7.55033 3.84734 7.61433 3.97534 7.74233C4.10334 7.87033 4.16711 8.02855 4.16667 8.21699C4.16622 8.40544 4.10222 8.56388 3.97467 8.69233C3.84711 8.82077 3.68889 8.88455 3.5 8.88366H1.16667ZM2.5 6.45033C2.31111 6.45033 2.15289 6.38633 2.02534 6.25833C1.89778 6.13033 1.83378 5.9721 1.83334 5.78366C1.83289 5.59521 1.89689 5.43699 2.02534 5.30899C2.15378 5.18099 2.312 5.11699 2.5 5.11699H5.5C5.68889 5.11699 5.84734 5.18099 5.97534 5.30899C6.10334 5.43699 6.16711 5.59521 6.16667 5.78366C6.16622 5.9721 6.10222 6.13055 5.97467 6.25899C5.84711 6.38744 5.68889 6.45121 5.5 6.45033H2.5ZM4.66667 12.0003C4.85556 12.0003 5.014 11.9363 5.142 11.8083C5.27 11.6803 5.33378 11.5221 5.33334 11.3337C5.33289 11.1452 5.26889 10.987 5.14134 10.859C5.01378 10.731 4.85556 10.667 4.66667 10.667C4.47778 10.667 4.31956 10.731 4.192 10.859C4.06445 10.987 4.00045 11.1452 4 11.3337C3.99956 11.5221 4.06356 11.6805 4.192 11.809C4.32045 11.9374 4.47867 12.0012 4.66667 12.0003ZM11.3333 12.0003C11.5222 12.0003 11.6807 11.9363 11.8087 11.8083C11.9367 11.6803 12.0004 11.5221 12 11.3337C11.9996 11.1452 11.9356 10.987 11.808 10.859C11.6804 10.731 11.5222 10.667 11.3333 10.667C11.1444 10.667 10.9862 10.731 10.8587 10.859C10.7311 10.987 10.6671 11.1452 10.6667 11.3337C10.6662 11.5221 10.7302 11.6805 10.8587 11.809C10.9871 11.9374 11.1453 12.0012 11.3333 12.0003Z" fill="#757575"/>
</svg>
