<svg width="16" height="16" viewBox="0 0 16 16" fill="none" xmlns="http://www.w3.org/2000/svg">
<path d="M8.9987 4.33404L11.6654 7.00071M2.33203 12.6574V13.6674H3.34136C4.15936 13.6674 4.56803 13.6674 4.93536 13.5154C5.3027 13.3627 5.59203 13.074 6.17003 12.4954L12.746 5.92004C13.3347 5.33138 13.6287 5.03738 13.6614 4.67604C13.6667 4.61604 13.6667 4.55626 13.6614 4.49671C13.628 4.13604 13.3347 3.84138 12.746 3.25338C12.1574 2.66471 11.8634 2.37071 11.5027 2.33804C11.4428 2.33263 11.3826 2.33263 11.3227 2.33804C10.962 2.37071 10.668 2.66471 10.0794 3.25338L3.50336 9.82938C2.92536 10.4074 2.6367 10.696 2.48403 11.064C2.33203 11.4307 2.33203 11.84 2.33203 12.6574Z" stroke="#237AF2" stroke-width="1.5" stroke-linecap="round" stroke-linejoin="round"/>
</svg>
