<svg width="20" height="20" viewBox="0 0 24 24" fill="none" xmlns="http://www.w3.org/2000/svg">
  <path d="M3.70711 2.29289C3.31658 1.90237 2.68342 1.90237 2.29289 2.29289C1.90237 2.68342 1.90237 3.31658 2.29289 3.70711L6.82843 8.24264C4.72555 9.5828 3.15614 11.5844 2.45703 14C3.73128 18.0571 7.52159 21 11.9992 21C13.6568 21 15.2344 20.6185 16.6434 19.9415L20.2929 23.5911C20.6834 23.9816 21.3166 23.9816 21.7071 23.5911C22.0976 23.2005 22.0976 22.5674 21.7071 22.1768L3.70711 2.29289ZM14.5254 17.8235C13.7542 18.2574 12.8998 18.5 11.9992 18.5C9.51378 18.5 7.49924 16.4853 7.49924 14C7.49924 13.0994 7.74184 12.245 8.17574 11.4738L10.1159 13.414C10.0403 13.5977 9.99924 13.7982 9.99924 14C9.99924 15.1046 10.8947 16 11.9992 16C12.2011 16 12.4015 15.959 12.5852 15.8833L14.5254 17.8235ZM17.7071 14.707C17.8947 14.1617 17.9992 13.5815 17.9992 12.9802C17.9992 10.7715 16.2079 8.98023 13.9992 8.98023C13.398 8.98023 12.8178 9.08475 12.2725 9.27231L14.1421 11.1419C14.6207 11.5097 14.9689 12.0579 15.1102 12.6863L17.7071 14.707ZM11.9992 6C16.4769 6 20.2672 8.94291 21.5414 13C21.2607 13.894 20.8577 14.7338 20.3522 15.5L18.7428 13.8906C19.0855 13.3211 19.3721 12.7063 19.5912 12.0567C18.3792 8.89869 15.4217 6.66667 11.9992 6.66667C11.2742 6.66667 10.5682 6.76582 9.89515 6.95311L8.17574 5.23369C9.34184 4.7801 10.6229 4.5 11.9992 4.5C12.5515 4.5 12.9992 4.94772 12.9992 5.5C12.9992 6.05228 12.5515 6.5 11.9992 6.5C11.9992 6 11.9992 6 11.9992 6Z" fill="#999"/>
</svg>
