<svg xmlns="http://www.w3.org/2000/svg" width="16" height="16" viewBox="0 0 16 16" fill="none">
  <path fill-rule="evenodd" clip-rule="evenodd" d="M14.6654 8.00065C14.6654 11.6827 11.6807 14.6673 7.9987 14.6673C4.3167 14.6673 1.33203 11.6827 1.33203 8.00065C1.33203 4.31865 4.3167 1.33398 7.9987 1.33398C11.6807 1.33398 14.6654 4.31865 14.6654 8.00065ZM7.33203 5.33398C7.33203 5.5108 7.40227 5.68036 7.52729 5.80539C7.65232 5.93041 7.82189 6.00065 7.9987 6.00065H8.00403C8.18084 6.00065 8.35041 5.93041 8.47544 5.80539C8.60046 5.68036 8.6707 5.5108 8.6707 5.33398C8.6707 5.15717 8.60046 4.9876 8.47544 4.86258C8.35041 4.73756 8.18084 4.66732 8.00403 4.66732H7.9987C7.82189 4.66732 7.65232 4.73756 7.52729 4.86258C7.40227 4.9876 7.33203 5.15717 7.33203 5.33398ZM7.9987 11.334C8.17551 11.334 8.34508 11.2637 8.4701 11.1387C8.59513 11.0137 8.66536 10.8441 8.66536 10.6673V7.33398C8.66536 7.15717 8.59513 6.9876 8.4701 6.86258C8.34508 6.73756 8.17551 6.66732 7.9987 6.66732C7.82189 6.66732 7.65232 6.73756 7.52729 6.86258C7.40227 6.9876 7.33203 7.15717 7.33203 7.33398V10.6673C7.33203 10.8441 7.40227 11.0137 7.52729 11.1387C7.65232 11.2637 7.82189 11.334 7.9987 11.334Z" fill="#333333"/>
</svg>
