<svg width="16" height="16" viewBox="0 0 16 16" fill="none" xmlns="http://www.w3.org/2000/svg">
<path d="M6.87249 9.12888L10.1033 5.89811M13.4082 3.92643L10.6811 12.7895C10.4367 13.5838 10.3144 13.9811 10.1036 14.1128C9.92078 14.2271 9.69441 14.2462 9.49528 14.1635C9.26567 14.0683 9.07931 13.6962 8.70754 12.9527L6.98024 9.49805C6.92125 9.38006 6.89172 9.32131 6.85231 9.27018C6.81734 9.22482 6.77698 9.18395 6.73162 9.14898C6.68166 9.11046 6.62389 9.08159 6.51116 9.02523L3.0486 7.29395C2.30506 6.92218 1.93326 6.73612 1.83799 6.50651C1.75536 6.30738 1.77421 6.0808 1.88844 5.89797C2.02017 5.68714 2.41747 5.56467 3.21201 5.32019L12.0751 2.5931C12.6997 2.4009 13.0122 2.30488 13.2231 2.38234C13.4069 2.44981 13.5518 2.59455 13.6193 2.77832C13.6967 2.9892 13.6006 3.30149 13.4086 3.92551L13.4082 3.92643Z" stroke="#333333" stroke-width="2" stroke-linecap="round" stroke-linejoin="round"/>
</svg>
